HIERARCHY
ROOT Hips
{
  OFFSET 5.84602e-005 68.8428 3.50346
  CHANNELS 6 Xposition Yposition Zposition Zrotation Xrotation Yrotation
  JOINT Spine
  {
    OFFSET 0 8.597 -4.6522
    CHANNELS 3 Zrotation Xrotation Yrotation
    JOINT Spine1
    {
      OFFSET 0 7.8454 0.4098
      CHANNELS 3 Zrotation Xrotation Yrotation
      JOINT Spine2
      {
        OFFSET 0 9.7078 -2.1609
        CHANNELS 3 Zrotation Xrotation Yrotation
        JOINT Neck
        {
          OFFSET 0 21.8761 -0.4549
          CHANNELS 3 Zrotation Xrotation Yrotation
          JOINT Head
          {
            OFFSET 0 12.3537 3.3602
            CHANNELS 3 Zrotation Xrotation Yrotation
            End Site
            {
              OFFSET 0.0001 18.9506 0.5657
            }
          }
        }
        JOINT LeftShoulder
        {
          OFFSET 2.2086 21.1115 7.2329
          CHANNELS 3 Zrotation Xrotation Yrotation
          JOINT LeftArm
          {
            OFFSET 13.1193 3.0282 -4.8998
            CHANNELS 3 Zrotation Xrotation Yrotation
            JOINT LeftForeArm
            {
              OFFSET 27.4081 -0.0973053 -0.2375
              CHANNELS 3 Zrotation Xrotation Yrotation
              JOINT LeftHand
              {
                OFFSET 22.8641 0.0662994 -0.1369
                CHANNELS 3 Zrotation Xrotation Yrotation
                JOINT LeftHandIndex1
                {
                  OFFSET 8.8614 0.775009 2.4612
                  CHANNELS 3 Zrotation Xrotation Yrotation
                  JOINT LeftHandIndex2
                  {
                    OFFSET 3.3146 -0.808304 0.5841
                    CHANNELS 3 Zrotation Xrotation Yrotation
                    JOINT LeftHandIndex3
                    {
                      OFFSET 2.2628 -0.552002 0.3989
                      CHANNELS 3 Zrotation Xrotation Yrotation
                      End Site
                      {
                        OFFSET 1.6102 -0.4807 0.2612
                      }
                    }
                  }
                }
                JOINT LeftHandMiddle1
                {
                  OFFSET 8.9937 0.895004 0.2143
                  CHANNELS 3 Zrotation Xrotation Yrotation
                  JOINT LeftHandMiddle2
                  {
                    OFFSET 4.0984 0.0113983 -0.0242
                    CHANNELS 3 Zrotation Xrotation Yrotation
                    JOINT LeftHandMiddle3
                    {
                      OFFSET 2.2716 0.00689697 -0.0138001
                      CHANNELS 3 Zrotation Xrotation Yrotation
                      End Site
                      {
                        OFFSET 2.0404 -0.1441 0.0027
                      }
                    }
                  }
                }
                JOINT LeftHandRing1
                {
                  OFFSET 8.5234 0.597198 -2.0164
                  CHANNELS 3 Zrotation Xrotation Yrotation
                  JOINT LeftHandRing2
                  {
                    OFFSET 3.7188 -0.188293 -0.2328
                    CHANNELS 3 Zrotation Xrotation Yrotation
                    JOINT LeftHandRing3
                    {
                      OFFSET 2.1191 -0.106598 -0.1332
                      CHANNELS 3 Zrotation Xrotation Yrotation
                      End Site
                      {
                        OFFSET 1.8737 -0.2304 -0.0886
                      }
                    }
                  }
                }
                JOINT LeftHandPinky1
                {
                  OFFSET 7.9094 -0.601089 -3.4825
                  CHANNELS 3 Zrotation Xrotation Yrotation
                  JOINT LeftHandPinky2
                  {
                    OFFSET 2.2874 -0.477005 -0.6314
                    CHANNELS 3 Zrotation Xrotation Yrotation
                    JOINT LeftHandPinky3
                    {
                      OFFSET 1.6774 -0.349396 -0.4633
                      CHANNELS 3 Zrotation Xrotation Yrotation
                      End Site
                      {
                        OFFSET 1.4888 -0.4091 -0.3416
                      }
                    }
                  }
                }
                JOINT LeftHandThumb1
                {
                  OFFSET 1.833 -1.3875 1.3896
                  CHANNELS 3 Zrotation Xrotation Yrotation
                  JOINT LeftHandThumb2
                  {
                    OFFSET 3.4129 -1.121 2.5732
                    CHANNELS 3 Zrotation Xrotation Yrotation
                    JOINT LeftHandThumb3
                    {
                      OFFSET 2.2474 -0.804199 1.6192
                      CHANNELS 3 Zrotation Xrotation Yrotation
                      End Site
                      {
                        OFFSET 1.6527 -0.5689 1.1317
                      }
                    }
                  }
                }
              }
            }
          }
        }
        JOINT RightShoulder
        {
          OFFSET -2.2086 21.1115 7.2329
          CHANNELS 3 Zrotation Xrotation Yrotation
          JOINT RightArm
          {
            OFFSET -13.1216 3.0287 -4.9007
            CHANNELS 3 Zrotation Xrotation Yrotation
            JOINT RightForeArm
            {
              OFFSET -27.4081 -0.0973053 -0.2375
              CHANNELS 3 Zrotation Xrotation Yrotation
              JOINT RightHand
              {
                OFFSET -22.8641 0.0664063 -0.1369
                CHANNELS 3 Zrotation Xrotation Yrotation
                JOINT RightHandIndex1
                {
                  OFFSET -8.8614 0.774994 2.4612
                  CHANNELS 3 Zrotation Xrotation Yrotation
                  JOINT RightHandIndex2
                  {
                    OFFSET -3.3146 -0.808304 0.5841
                    CHANNELS 3 Zrotation Xrotation Yrotation
                    JOINT RightHandIndex3
                    {
                      OFFSET -2.2628 -0.552002 0.3989
                      CHANNELS 3 Zrotation Xrotation Yrotation
                      End Site
                      {
                        OFFSET -1.6102 -0.4807 0.2612
                      }
                    }
                  }
                }
                JOINT RightHandMiddle1
                {
                  OFFSET -8.9937 0.894989 0.2143
                  CHANNELS 3 Zrotation Xrotation Yrotation
                  JOINT RightHandMiddle2
                  {
                    OFFSET -4.0984 0.0113983 -0.0242
                    CHANNELS 3 Zrotation Xrotation Yrotation
                    JOINT RightHandMiddle3
                    {
                      OFFSET -2.2716 0.00691223 -0.0138001
                      CHANNELS 3 Zrotation Xrotation Yrotation
                      End Site
                      {
                        OFFSET -2.0404 -0.1441 0.0027
                      }
                    }
                  }
                }
                JOINT RightHandRing1
                {
                  OFFSET -8.5234 0.597198 -2.0164
                  CHANNELS 3 Zrotation Xrotation Yrotation
                  JOINT RightHandRing2
                  {
                    OFFSET -3.7188 -0.188309 -0.2328
                    CHANNELS 3 Zrotation Xrotation Yrotation
                    JOINT RightHandRing3
                    {
                      OFFSET -2.1191 -0.106598 -0.1332
                      CHANNELS 3 Zrotation Xrotation Yrotation
                      End Site
                      {
                        OFFSET -1.8737 -0.2304 -0.0886
                      }
                    }
                  }
                }
                JOINT RightHandPinky1
                {
                  OFFSET -7.9094 -0.601105 -3.4825
                  CHANNELS 3 Zrotation Xrotation Yrotation
                  JOINT RightHandPinky2
                  {
                    OFFSET -2.2874 -0.477005 -0.6314
                    CHANNELS 3 Zrotation Xrotation Yrotation
                    JOINT RightHandPinky3
                    {
                      OFFSET -1.6774 -0.349396 -0.4633
                      CHANNELS 3 Zrotation Xrotation Yrotation
                      End Site
                      {
                        OFFSET -1.4888 -0.4091 -0.3416
                      }
                    }
                  }
                }
                JOINT RightHandThumb1
                {
                  OFFSET -1.833 -1.38751 1.3896
                  CHANNELS 3 Zrotation Xrotation Yrotation
                  JOINT RightHandThumb2
                  {
                    OFFSET -3.41299 -1.12099 2.5732
                    CHANNELS 3 Zrotation Xrotation Yrotation
                    JOINT RightHandThumb3
                    {
                      OFFSET -2.24741 -0.804108 1.6192
                      CHANNELS 3 Zrotation Xrotation Yrotation
                      End Site
                      {
                        OFFSET -1.6527 -0.5689 1.1317
                      }
                    }
                  }
                }
              }
            }
          }
        }
      }
    }
  }
  JOINT RightUpLeg
  {
    OFFSET -9.1966 3.8861 -0.7581
    CHANNELS 3 Zrotation Xrotation Yrotation
    JOINT RightLeg
    {
      OFFSET -0.7359 -41.0265 0
      CHANNELS 3 Zrotation Xrotation Yrotation
      JOINT RightFoot
      {
        OFFSET 0 -40.2855 0
        CHANNELS 3 Zrotation Xrotation Yrotation
        JOINT RightToeBase
        {
          OFFSET 0 -5.6122 11.7359
          CHANNELS 3 Zrotation Xrotation Yrotation
          End Site
          {
            OFFSET 0 0 7.8731
          }
        }
      }
    }
  }
  JOINT LeftUpLeg
  {
    OFFSET 9.1965 3.8864 -0.7581
    CHANNELS 3 Zrotation Xrotation Yrotation
    JOINT LeftLeg
    {
      OFFSET 0.7359 -41.0268 0
      CHANNELS 3 Zrotation Xrotation Yrotation
      JOINT LeftFoot
      {
        OFFSET 0 -40.2855 0
        CHANNELS 3 Zrotation Xrotation Yrotation
        JOINT LeftToeBase
        {
          OFFSET 0 -5.6122 11.7359
          CHANNELS 3 Zrotation Xrotation Yrotation
          End Site
          {
            OFFSET 0 0 7.8731
          }
        }
      }
    }
  }
}
MOTION
Frames:	5
Frame Time:	0.0333333
5.84602e-005 68.8428 3.50346 0 0 -0 0 0 -0 0 0 -0 0 0 -0 0 0 -0 0 0 -0 0 0 -0 0 0 -0 0 0 -0 0 0 -0 0 0 -0 0 0 -0 0 0 -0 0 0 -0 -0.0146107 -8.87603e-005 -2.63497e-007 2.99804e-018 -2.42657e-020 -1.42182e-022 0 0 -0 -0.0187562 -0.001176 5.858e-005 5.06224e-018 3.88251e-019 1.21329e-020 0 0 -0 -0.012269 -0.00324817 0.000675346 -1.74678e-018 3.88251e-019 -0 0 0 -0 0 0 -0 0 0 -0 0 0 -0 0 0 -0 0 0 -0 0 0 -0 0 0 -0 0 0 -0 0 0 -0 0 0 -0 0.0149955 -9.10982e-005 2.64101e-007 -9.69331e-018 1.21329e-020 -4.7394e-023 0 0 -0 0.0189956 -0.00119102 -5.96516e-005 -5.41541e-019 0 2.42657e-020 0 0 -0 0.0122698 -0.00324857 -0.000673756 -2.00796e-019 0 -1.94126e-019 0 0 -0 0 0 -0 0 0 -0 3.39842 1.33031 -0.0637918 -5.65207e-008 0.834868 -0.000436188 -3.39935 -2.16518 -0.0642563 -8.89002e-024 -1.18485e-023 -1.48106e-024 -3.39844 1.35642 0.0640283 -3.18788e-007 0.782166 -0.000588827 3.39931 -2.13858 0.0634662 1.1399e-023 0 -0 
0.0438164 3.79929 78.0593 -180 -85.9956 -180 -0.00246235 0.642671 -0.090251 -0.00391257 1.28531 -0.180491 -0.00391263 1.28534 -0.180491 2.84818e-006 25.998 -2.23692e-006 -3.20866e-008 4.99721 3.05254e-008 -8.21482 -15.5543 -7.11547 -74.4815 -0.903388 -4.64768 4.59611 -3.86444 -39.4119 -17.4494 -6.99469 14.1314 5.56597e-015 -9.14409e-015 1.27222e-014 9.54166e-015 -8.74653e-015 3.18055e-015 7.55382e-015 -7.15625e-015 6.36111e-015 5.56597e-015 -9.14409e-015 1.27222e-014 -0.0146099 -8.62686e-005 -5.36958e-007 7.95139e-016 1.59028e-015 -6.36111e-015 5.56597e-015 -9.14409e-015 1.27222e-014 -0.0187851 -0.00117594 5.96551e-005 6.75868e-015 -8.74653e-015 9.54166e-015 5.56597e-015 -9.14409e-015 1.27222e-014 -0.0122763 -0.00324711 0.00067281 2.38542e-015 1.59028e-015 6.36111e-015 5.56597e-015 -9.14409e-015 1.27222e-014 9.54166e-015 -8.74653e-015 3.18055e-015 7.55382e-015 -7.15625e-015 6.36111e-015 -0.356475 -9.01375 -0.850726 83.7955 0.642677 3.36371 1.73682 2.89555 60.1576 14.3516 -3.1639 -6.96018 1.68967e-015 0 -6.36111e-015 -1.98785e-016 -5.96354e-016 -6.36111e-015 9.93923e-016 1.98785e-016 -0 1.68967e-015 0 -6.36111e-015 0.0149981 -9.25393e-005 -2.62601e-007 -1.68967e-015 -1.98785e-016 -3.18055e-015 1.68967e-015 0 -6.36111e-015 0.018997 -0.00119097 -6.05974e-005 -1.68967e-015 -5.96354e-016 -0 1.68967e-015 0 -6.36111e-015 0.0122581 -0.00324595 -0.000681247 -9.93923e-016 2.5842e-015 3.18055e-015 1.68967e-015 0 -6.36111e-015 -1.98785e-016 -5.96354e-016 -6.36111e-015 9.93923e-016 1.98785e-016 -0 -84.075 -60.0609 -120.014 140.074 56.9853 -140.966 -14.511 11.7009 15.8952 3.18055e-015 -3.18055e-015 -0 69.9572 -63.2661 106.161 -118.337 56.931 122.898 14.36 11.3752 -16.1783 3.18055e-015 7.95139e-016 -1.59028e-015 
0.0418698 3.79913 78.0594 -180 -85.9956 -180 -0.00251286 0.664607 -0.0902397 -0.00397923 1.3292 -0.180468 -0.00397918 1.32923 -0.180469 -1.60978e-006 24.6728 5.62589e-006 -1.15373e-007 3.94585 2.96914e-008 -7.24112 -15.2651 -6.37996 -75.3175 -0.761486 -4.40357 4.36513 -3.66008 -40.0623 -17.4097 -6.84087 13.9666 1.19271e-015 0 6.36111e-015 -1.59028e-015 1.98785e-015 -0 7.95139e-016 3.97569e-016 9.54166e-015 1.19271e-015 0 6.36111e-015 -0.014634 -8.53065e-005 -1.23313e-006 1.59028e-015 -4.37326e-015 -0 1.19271e-015 0 6.36111e-015 -0.018796 -0.00117811 5.34362e-005 -1.98785e-015 3.97569e-016 -6.36111e-015 1.19271e-015 0 6.36111e-015 -0.0122383 -0.00324274 0.000679983 -2.38542e-015 -3.97569e-016 -6.36111e-015 1.19271e-015 0 6.36111e-015 -1.59028e-015 1.98785e-015 -0 7.95139e-016 3.97569e-016 9.54166e-015 -0.628528 -8.4995 -1.20663 84.0652 0.697389 3.02549 1.77832 3.05404 60.9799 14.3516 -3.16391 -6.96019 1.59028e-015 3.97569e-016 -3.18055e-015 -3.97569e-016 3.97569e-016 -3.18055e-015 -1.98785e-016 -3.97569e-016 -3.18055e-015 1.59028e-015 3.97569e-016 -3.18055e-015 0.0150026 -8.90118e-005 -6.97403e-007 2.89405e-006 6.06178e-007 8.29434e-007 1.59028e-015 3.97569e-016 -3.18055e-015 0.0189821 -0.001185 -6.42568e-005 2.89353e-006 6.06353e-007 8.29394e-007 1.59028e-015 3.97569e-016 -3.18055e-015 0.0122908 -0.00324684 -0.00067618 2.89443e-006 6.06593e-007 8.29458e-007 1.59028e-015 3.97569e-016 -3.18055e-015 -3.97569e-016 3.97569e-016 -3.18055e-015 -1.98785e-016 -3.97569e-016 -3.18055e-015 -84.3754 -60.3453 -120.348 141.054 56.4481 -141.845 -14.4983 11.7089 15.8627 -6.36111e-015 -1.59028e-015 -1.59028e-015 71.0143 -63.4542 107.174 -119.774 56.8795 124.128 14.359 11.392 -16.1548 -3.18055e-015 -1.59028e-015 -3.18055e-015 
0.0399223 3.799 78.0595 -180 -85.9956 -180 -0.00259611 0.68661 -0.0899536 -0.0041145 1.37323 -0.179895 -0.0041146 1.37322 -0.179895 6.44203e-006 23.3455 -1.88531e-005 2.34001e-008 2.89303 -9.87842e-008 -6.27129 -14.9631 -5.64961 -76.1549 -0.623068 -4.15722 4.1364 -3.453 -40.7123 -17.3695 -6.68714 13.8017 8.34896e-015 -1.03368e-014 9.54166e-015 1.07344e-014 -1.19271e-014 6.36111e-015 8.74653e-015 -1.23246e-014 6.36111e-015 8.34896e-015 -1.03368e-014 9.54166e-015 -0.0146 -9.56318e-005 3.09548e-006 -1.98785e-015 1.19271e-015 -3.18055e-015 8.34896e-015 -1.03368e-014 9.54166e-015 -0.0187367 -0.00117368 5.85841e-005 3.97569e-016 1.19271e-015 3.18055e-015 8.34896e-015 -1.03368e-014 9.54166e-015 -0.0122819 -0.00324944 0.000676739 -1.98785e-015 1.19271e-015 -0 8.34896e-015 -1.03368e-014 9.54166e-015 1.07344e-014 -1.19271e-014 6.36111e-015 8.74653e-015 -1.23246e-014 6.36111e-015 -0.897143 -7.98307 -1.55982 84.3352 0.750547 2.68692 1.81757 3.21322 61.8028 14.3516 -3.1639 -6.96018 2.89763e-006 6.27454e-007 8.42336e-007 -2.89763e-006 -6.27454e-007 -8.42336e-007 2.89763e-006 6.27454e-007 8.42336e-007 2.89763e-006 6.27454e-007 8.42336e-007 0.0149759 -8.91691e-005 -1.51128e-006 2.89565e-006 6.27576e-007 8.42252e-007 2.89763e-006 6.27454e-007 8.42336e-007 0.0189795 -0.00118883 -5.60843e-005 2.89512e-006 6.27752e-007 8.4221e-007 2.89763e-006 6.27454e-007 8.42336e-007 0.0122824 -0.00325194 -0.00067897 1.78906e-015 -3.97569e-016 3.18055e-015 2.89763e-006 6.27454e-007 8.42336e-007 -2.89763e-006 -6.27454e-007 -8.42336e-007 2.89763e-006 6.27454e-007 8.42336e-007 -84.6812 -60.6289 -120.689 142.009 55.9026 -142.696 -14.4854 11.7172 15.8296 -3.18055e-015 -1.59028e-015 -0 72.0859 -63.6338 108.201 -121.209 56.8112 125.354 14.3578 11.409 -16.1312 -6.36111e-015 -3.18055e-015 3.18055e-015 
0.0379671 3.7989 78.0595 -180 -85.9956 -180 -0.00266535 0.708773 -0.0897072 -0.00422136 1.41754 -0.179402 -0.00422135 1.41754 -0.179402 1.73699e-006 22.0144 -4.91692e-006 -1.30813e-008 1.83897 6.28255e-008 -5.30565 -14.6493 -4.92474 -76.9935 -0.488136 -3.90863 3.90994 -3.24322 -41.3616 -17.329 -6.53351 13.6367 -6.62086e-032 -1.19271e-015 -3.18055e-015 1.59028e-015 -3.97569e-016 -0 1.19271e-015 -1.19271e-015 -0 -6.62086e-032 -1.19271e-015 -3.18055e-015 -0.0146197 -8.64357e-005 -6.14996e-006 7.95139e-016 -3.97569e-016 6.36111e-015 -6.62086e-032 -1.19271e-015 -3.18055e-015 -0.0187836 -0.00117613 5.50472e-005 -0 -3.97569e-016 -0 -6.62086e-032 -1.19271e-015 -3.18055e-015 -0.0122865 -0.00325106 0.0006702 -3.97569e-015 -2.50469e-014 -0 -6.62086e-032 -1.19271e-015 -3.18055e-015 1.59028e-015 -3.97569e-016 -0 1.19271e-015 -1.19271e-015 -0 -1.16233 -7.46507 -1.91026 84.6057 0.802126 2.34804 1.85454 3.37308 62.6265 14.3516 -3.1639 -6.96018 -1.43237e-006 6.50918e-007 -1.55087e-006 -1.98785e-016 -7.95139e-016 -0 1.98785e-016 7.95139e-016 3.18055e-015 -1.43237e-006 6.50918e-007 -1.55087e-006 0.014978 -9.14697e-005 1.83518e-006 7.95139e-016 0 3.18055e-015 -1.43237e-006 6.50918e-007 -1.55087e-006 0.0189973 -0.00118978 -5.71052e-005 1.78906e-015 -7.95139e-016 -3.18055e-015 -1.43237e-006 6.50918e-007 -1.55087e-006 0.0122759 -0.00324662 -0.000679978 0 0 -0 -1.43237e-006 6.50918e-007 -1.55087e-006 -1.98785e-016 -7.95139e-016 -0 1.98785e-016 7.95139e-016 3.18055e-015 -84.9931 -60.9117 -121.038 142.938 55.3495 -143.522 -14.4721 11.7257 15.7957 -8.82781e-032 3.18055e-015 1.59028e-015 73.1715 -63.8051 109.243 -122.639 56.7261 126.577 14.3567 11.4262 -16.1073 6.36111e-015 1.59028e-015 4.77083e-015 
